<svg width="120" height="120" viewBox="0 0 120 120" fill="none" xmlns="http://www.w3.org/2000/svg">
<path d="M26.7193 48.4609L48.461 26.7192L22.0777 0.33594C21.8627 0.120841 21.5709 0 21.2667 0H1.14711C0.513653 0 0.000137329 0.513517 0.000137329 1.14697V21.2666C0.000137329 21.5708 0.120979 21.8626 0.336078 22.0777L26.7193 48.4609Z" fill="#00E0CA"/>
<path d="M96.7299 74.9893C94.5208 72.7801 91.5246 71.5391 88.4004 71.5391H85.3017C77.7003 71.5391 71.5381 77.7013 71.5381 85.3027V88.4015C71.5381 91.5256 72.7791 94.5219 74.9883 96.731L97.9213 119.664C98.1364 119.879 98.4282 120 98.7324 120H118.852C119.485 120 119.999 119.486 119.999 118.853V98.7333C119.999 98.4291 119.878 98.1374 119.663 97.9223L96.7299 74.9893Z" fill="#00E0CA"/>
</svg>
