<svg width="120" height="120" viewBox="0 0 120 120" fill="none" xmlns="http://www.w3.org/2000/svg">
<path d="M21.2186 120H1.26328C0.565658 120 0.00012207 119.434 0.00012207 118.737V98.7815C0.00012207 98.4465 0.133201 98.1252 0.370094 97.8883L97.8883 0.36997C98.1251 0.133082 98.4464 0 98.7815 0H118.737C119.434 0 120 0.565535 120 1.26316V21.2185C120 21.5535 119.867 21.8748 119.63 22.1117L90.2444 51.4972C88.0353 53.7063 85.0391 54.9474 81.9149 54.9474H78.7784C66.0543 54.9474 55.6293 65.0506 55.2305 77.7684L55.0937 82.1322C54.9998 85.1272 53.768 87.9738 51.6493 90.0926L22.1118 119.63C21.8749 119.867 21.5536 120 21.2186 120Z" fill="#313131"/>
</svg>
