<svg width="22" height="22" viewBox="0 0 22 22" fill="none" xmlns="http://www.w3.org/2000/svg">
<path d="M4.77524 8.66089L8.66089 4.77523L3.9457 0.060039C3.90725 0.0215967 3.85511 0 3.80075 0H0.204986C0.0917752 0 0 0.0917754 0 0.204986V3.80076C0 3.85512 0.0215967 3.90726 0.0600391 3.9457L4.77524 8.66089Z" fill="#00E0CA"/>
<path d="M17.2877 13.402C16.8929 13.0072 16.3574 12.7854 15.799 12.7854H15.2452C13.8867 12.7854 12.7854 13.8867 12.7854 15.2452V15.799C12.7854 16.3574 13.0072 16.8929 13.402 17.2877L17.5006 21.3863C17.539 21.4247 17.5912 21.4463 17.6455 21.4463H21.2413C21.3545 21.4463 21.4463 21.3545 21.4463 21.2413V17.6455C21.4463 17.5912 21.4247 17.539 21.3863 17.5006L17.2877 13.402Z" fill="#00E0CA"/>
<path d="M3.79215 21.4463H0.225751C0.101072 21.4463 0 21.3452 0 21.2206V17.6542C0 17.5943 0.0237838 17.5369 0.0661211 17.4945L17.4945 0.0661208C17.5368 0.0237844 17.5943 0 17.6541 0H21.2205C21.3452 0 21.4463 0.101072 21.4463 0.225751V3.79215C21.4463 3.85203 21.4225 3.90945 21.3802 3.95178L16.1284 9.20354C15.7336 9.59835 15.1981 9.82015 14.6397 9.82015H14.0792C11.8052 9.82015 9.942 11.6258 9.87073 13.8987L9.84628 14.6786C9.8295 15.2139 9.60937 15.7226 9.2307 16.1013L3.95178 21.3802C3.90944 21.4225 3.85202 21.4463 3.79215 21.4463Z" fill="white"/>
</svg>
