<svg width="60" height="60" viewBox="0 0 60 60" fill="none" xmlns="http://www.w3.org/2000/svg">
<mask id="mask0_2383_36701" style="mask-type:luminance" maskUnits="userSpaceOnUse" x="0" y="-1" width="60" height="61">
<path d="M60 -0.000244141H0V59.9998H60V-0.000244141Z" fill="white"/>
</mask>
<g mask="url(#mask0_2383_36701)">
<path d="M30 59.9998C27.5 59.9998 25.4167 59.1925 23.75 57.5779C22.0833 55.9633 21.25 54.0103 21.25 51.7186C21.25 50.4166 21.5104 49.2445 22.0312 48.2029C22.5521 47.1613 23.4635 46.0153 24.7656 44.7655C26.1198 43.5154 27.1875 42.3436 27.9688 41.2498C28.8021 40.1041 29.2187 39.1144 29.2187 38.281V35.4685C28.0729 35.2081 27.0573 34.6873 26.1719 33.9061C25.3385 33.0727 24.7917 32.083 24.5312 30.9373H21.7187C20.8333 30.9373 19.7917 31.354 18.5938 32.1874C17.3958 33.0205 16.25 34.0363 15.1562 35.2342C14.0625 36.4321 12.9688 37.3174 11.875 37.8904C10.8333 38.4634 9.63543 38.7499 8.28126 38.7499C5.93751 38.7499 3.95832 37.9165 2.34375 36.2497C0.781251 34.5832 0 32.4997 0 29.9998C0 27.4998 0.781251 25.4164 2.34375 23.7498C3.95832 22.0831 5.93751 21.2497 8.28126 21.2497C10.4687 21.2497 12.3437 22.031 13.9063 23.5935C15.4688 25.156 16.875 26.4841 18.125 27.5779C19.375 28.6716 20.5729 29.2185 21.7187 29.2185H24.5312C24.7917 28.0206 25.3385 27.031 26.1719 26.2498C27.0573 25.4164 28.0729 24.8956 29.2187 24.6872V21.8748C29.2187 20.5206 28.1771 18.8018 26.0938 16.7185L24.4531 15.0779C22.3177 12.9425 21.25 10.6768 21.25 8.28102C21.25 5.93727 22.0833 3.98412 23.75 2.42163C25.4687 0.807047 27.5521 -0.000244141 30 -0.000244141C32.4999 -0.000244141 34.5834 0.807047 36.2499 2.42163C37.9167 4.03623 38.7501 5.98935 38.7501 8.28102C38.7501 10.9372 37.4478 13.4373 34.8438 15.781C32.2395 18.1768 30.9375 20.2081 30.9375 21.8748V24.6872C32.1354 24.8956 33.1251 25.4164 33.9063 26.2498C34.7397 27.031 35.2605 28.0206 35.4687 29.2185H38.2812C40.0521 29.2185 42.0834 27.8904 44.3751 25.2341C46.7187 22.5779 49.1667 21.2497 51.7188 21.2497C54.0624 21.2497 56.0157 22.1091 57.5781 23.8279C59.1927 25.4945 60 27.5518 60 29.9998C60 32.4997 59.1927 34.5832 57.5781 36.2497C55.9635 37.9165 54.0105 38.7499 51.7188 38.7499C49.5312 38.7499 47.6823 37.9945 46.1718 36.4843C44.6616 34.9738 43.2552 33.6718 41.9532 32.578C40.6509 31.4842 39.4272 30.9373 38.2812 30.9373H35.4687C35.052 33.4372 33.5418 34.9477 30.9375 35.4685V38.281C30.9375 39.8434 32.2395 41.8489 34.8438 44.2966C37.4478 46.7446 38.7501 49.2184 38.7501 51.7186C38.7501 54.0622 37.8906 56.0155 36.1719 57.5779C34.5051 59.1925 32.448 59.9998 30 59.9998Z" fill="url(#paint0_radial_2383_36701)"/>
</g>
<defs>
<radialGradient id="paint0_radial_2383_36701" cx="0" cy="0" r="1" gradientUnits="userSpaceOnUse" gradientTransform="translate(30 29.9998) rotate(90) scale(30)">
<stop stop-color="white"/>
<stop offset="1" stop-color="#00E0CA"/>
</radialGradient>
</defs>
</svg>
