<svg width="60" height="60" viewBox="0 0 60 60" fill="none" xmlns="http://www.w3.org/2000/svg">
<g clip-path="url(#clip0_2383_36708)">
<mask id="mask0_2383_36708" style="mask-type:luminance" maskUnits="userSpaceOnUse" x="0" y="-1" width="60" height="61">
<path d="M60 -0.000244141H0V59.9998H60V-0.000244141Z" fill="white"/>
</mask>
<g mask="url(#mask0_2383_36708)">
<path d="M30 59.9998C28.0208 59.9998 26.1979 59.5051 24.5312 58.5154C22.9167 57.5779 21.6146 56.302 20.625 54.6874C19.6875 53.0206 19.2188 51.1978 19.2188 49.2184C19.2188 46.7185 19.7917 44.6353 20.9375 42.9685C22.0833 41.302 23.8542 39.3487 26.25 37.1092C28.0208 35.4946 28.9063 33.958 28.9063 32.4997V31.0936H27.5C25.8854 31.0936 23.6719 32.7082 20.8594 35.9374C18.099 39.1666 14.7396 40.7809 10.7812 40.7809C8.80209 40.7809 6.97917 40.3123 5.31249 39.3748C3.69792 38.3851 2.39583 37.0831 1.40625 35.4685C0.46875 33.802 0 31.9789 0 29.9998C0 28.0206 0.46875 26.2237 1.40625 24.6091C2.39583 22.9425 3.69792 21.6404 5.31249 20.7029C6.97917 19.7133 8.80209 19.2185 10.7812 19.2185C14.6875 19.2185 18.0208 20.807 20.7812 23.9841C23.5417 27.1612 25.7813 28.7497 27.5 28.7497H28.9063V27.4998C28.9063 26.0414 28.0208 24.505 26.25 22.8904L24.4531 21.2497C23.151 20.0518 21.9531 18.6196 20.8594 16.9529C19.7656 15.2341 19.2188 13.1768 19.2188 10.781C19.2188 8.80185 19.6875 7.00497 20.625 5.3904C21.6146 3.72372 22.9167 2.42163 24.5312 1.48413C26.1979 0.494546 28.0208 -0.000244141 30 -0.000244141C31.9791 -0.000244141 33.7761 0.494546 35.3907 1.48413C37.0572 2.47371 38.3595 3.7758 39.297 5.3904C40.2864 7.00497 40.7811 8.80185 40.7811 10.781C40.7811 14.6872 39.1926 18.0206 36.0156 20.781C32.8386 23.5414 31.2501 25.781 31.2501 27.4998V28.7497H32.4999C34.2708 28.7497 36.5103 27.1612 39.2187 23.9841C41.8749 20.807 45.2082 19.2185 49.2189 19.2185C51.198 19.2185 52.9947 19.7133 54.6093 20.7029C56.2761 21.6404 57.5781 22.9164 58.5156 24.531C59.5053 26.1456 60 27.9685 60 29.9998C60 31.9789 59.5053 33.802 58.5156 35.4685C57.5781 37.0831 56.2761 38.3851 54.6093 39.3748C52.9947 40.3123 51.198 40.7809 49.2189 40.7809C46.7709 40.7809 44.6616 40.1821 42.8907 38.9842C41.172 37.7863 39.2448 36.0415 37.1094 33.7498C35.4948 31.9789 33.9582 31.0936 32.4999 31.0936H31.2501V32.4997C31.2501 34.4269 32.8386 36.6664 36.0156 39.2185C39.1926 41.7706 40.7811 45.1039 40.7811 49.2184C40.7811 51.1978 40.2864 53.0206 39.297 54.6874C38.3595 56.302 37.0833 57.5779 35.4687 58.5154C33.8541 59.5051 32.0313 59.9998 30 59.9998Z" fill="url(#paint0_radial_2383_36708)"/>
</g>
</g>
<defs>
<radialGradient id="paint0_radial_2383_36708" cx="0" cy="0" r="1" gradientUnits="userSpaceOnUse" gradientTransform="translate(30 29.9998) rotate(90) scale(30)">
<stop stop-color="white"/>
<stop offset="1" stop-color="#00E0CA"/>
</radialGradient>
<clipPath id="clip0_2383_36708">
<rect width="60" height="60" fill="white" transform="translate(0 -0.000244141)"/>
</clipPath>
</defs>
</svg>
